<svg xmlns="http://www.w3.org/2000/svg" width="22.134" height="25.296" viewBox="0 0 22.134 25.296"><path d="M0,22.924A2.372,2.372,0,0,0,2.371,25.3H19.762a2.372,2.372,0,0,0,2.371-2.371V9.486H0Zm15.81-9.684a.6.6,0,0,1,.593-.593h1.976a.6.6,0,0,1,.593.593v1.976a.6.6,0,0,1-.593.593H16.4a.6.6,0,0,1-.593-.593Zm0,6.324a.6.6,0,0,1,.593-.593h1.976a.6.6,0,0,1,.593.593v1.976a.6.6,0,0,1-.593.593H16.4a.6.6,0,0,1-.593-.593ZM9.486,13.241a.6.6,0,0,1,.593-.593h1.976a.6.6,0,0,1,.593.593v1.976a.6.6,0,0,1-.593.593H10.079a.6.6,0,0,1-.593-.593Zm0,6.324a.6.6,0,0,1,.593-.593h1.976a.6.6,0,0,1,.593.593v1.976a.6.6,0,0,1-.593.593H10.079a.6.6,0,0,1-.593-.593ZM3.162,13.241a.6.6,0,0,1,.593-.593H5.731a.6.6,0,0,1,.593.593v1.976a.6.6,0,0,1-.593.593H3.755a.6.6,0,0,1-.593-.593Zm0,6.324a.6.6,0,0,1,.593-.593H5.731a.6.6,0,0,1,.593.593v1.976a.6.6,0,0,1-.593.593H3.755a.6.6,0,0,1-.593-.593Zm16.6-16.4H17.391V.79A.793.793,0,0,0,16.6,0H15.019a.793.793,0,0,0-.79.79V3.162H7.9V.79A.793.793,0,0,0,7.114,0H5.533a.793.793,0,0,0-.79.79V3.162H2.371A2.372,2.372,0,0,0,0,5.533V7.9H22.134V5.533A2.372,2.372,0,0,0,19.762,3.162Z"/></svg>