<svg xmlns="http://www.w3.org/2000/svg" viewBox="0 0 1977.96 2133.55"><title>Adapt icone</title><g id="Calque_1" data-name="Calque 1"><path d="M851.5,2314.27a18.77,18.77,0,0,0-14.9-11.37c-22.69-3-50.6-6.29-82.9-9.12-33.88-3.57-72-8.21-115.45-13.43A18.9,18.9,0,0,0,618.46,2292l-17,42c-7.89,20.27-16.74,42-26.14,64.75a18.9,18.9,0,0,1-17.46,11.69h-28a18.89,18.89,0,0,1-17.52-25.94L687,1950.42a18.88,18.88,0,0,1,17.52-11.84h52.9a18.89,18.89,0,0,1,17.52,11.84l174.59,434.06A18.89,18.89,0,0,1,932,2410.42H903.52A18.93,18.93,0,0,1,886,2398.57C871.68,2363.09,860.19,2334.89,851.5,2314.27Zm-59.61-74.48a18.88,18.88,0,0,0,19.85-25.73l-27.07-67.9-35.91-89.55c-6.33-15.79-28.67-15.82-35,0l-57.56,142.57a18.88,18.88,0,0,0,15.2,25.81Z" transform="translate(-511.02 -421.19)"/><path d="M1222.91,2048a123.65,123.65,0,0,1,27.72,12.8c.41.25.82.52,1.22.79q12.5,8.68,23.12,17.38c7.25,5.93,13.18,13.18,19.11,20.43v-3.3a16.85,16.85,0,0,1,.32-4.08,15.66,15.66,0,0,0,.34-3.55V1919.89A18.85,18.85,0,0,1,1313.6,1901h25.54a18.85,18.85,0,0,1,18.86,18.86v471.67a18.86,18.86,0,0,1-18.86,18.86h-15.69a18.85,18.85,0,0,1-17.94-13c-.94-2.88-1.9-6-2.87-9.37-.14-.48-.3-1-.45-1.46a18.92,18.92,0,0,0-30.28-8.62l-.24.2a216.43,216.43,0,0,1-25.7,17.79,190.54,190.54,0,0,1-29.65,12.52,107.08,107.08,0,0,1-32.29,5.27h-6.59a156.76,156.76,0,0,1-34.27-3.95,205.89,205.89,0,0,1-37.56-11.87c-13.84-5.93-27-13.17-38.88-23.06a183.32,183.32,0,0,1-32.29-34.92c-5.15-7.08-9.67-15.42-14.17-23.78-.22-.41-.42-.82-.62-1.24a257.08,257.08,0,0,1-10.25-26.39,151.47,151.47,0,0,1-6.59-31,197.42,197.42,0,0,1-2.64-34.93,154.8,154.8,0,0,1,2.64-31c1.32-9.88,3.29-19.77,6.59-28.33,3.14-8.18,6.29-16.36,10-24.53a18.83,18.83,0,0,1,1.21-2.26l12.65-20.49c.34-.55.71-1.09,1.1-1.61a180.09,180.09,0,0,1,32.36-33.48c12.52-9.89,25.7-18.46,40.2-24.39s28.33-10.54,42.17-13.18a215.38,215.38,0,0,1,40.86-2A126.86,126.86,0,0,1,1222.91,2048Zm3.95,295.88a116,116,0,0,0,38.23-27c11.2-11.86,20.42-25,26.35-39.54s8.57-30.31,8.57-47.44c0-16.48-2.63-32.29-8.57-46.79s-15.15-27.68-26.35-40.2a116.11,116.11,0,0,0-167.39,0c-11.2,12.52-20.43,25.7-26.36,40.2s-8.56,30.31-8.56,46.79c0,17.13,2.63,32.94,8.56,47.44s15.16,27.68,26.36,39.54a115.9,115.9,0,0,0,38.23,27c13.83,5.93,29,8.57,45.46,8.57S1213,2349.79,1226.86,2343.86Z" transform="translate(-511.02 -421.19)"/><path d="M1785,2064.2v327.36a18.87,18.87,0,0,1-18.86,18.86H1748a18.88,18.88,0,0,1-18-13.06l-3-9.35c-.15-.48-.3-1-.46-1.46a18.92,18.92,0,0,0-30.28-8.62l-.23.2a112,112,0,0,1-25,17.13,159.93,159.93,0,0,1-29,12.52,107,107,0,0,1-32.29,5.27h-6.92a185.78,185.78,0,0,1-23.58-1.45c-3.68-.46-7.35-1-11-1.84a133.46,133.46,0,0,1-21.74-5.94c-7.25-2.63-13.84-5.93-21.09-9.22a173.6,173.6,0,0,1-36.9-25,214.86,214.86,0,0,1-32.29-36.25,146.69,146.69,0,0,1-22.41-48.1c-4.61-17.79-7.25-38.22-7.25-61.29a204.92,204.92,0,0,1,7.25-55.35c4.62-16.48,12.52-31.63,22.41-45.47s20.43-26.36,32.29-36.24a162.47,162.47,0,0,1,37.56-25.05,240.83,240.83,0,0,1,23.06-9.22c7-2.53,14.52-4.45,21.52-6.35.6-.16,1.19-.29,1.8-.39l14.91-2.49a126.61,126.61,0,0,1,15.81-.66h5.93a22.39,22.39,0,0,1,6.59.66A127.93,127.93,0,0,1,1648,2050a124.29,124.29,0,0,1,27.66,12.11c.45.27.9.57,1.34.87q12.46,8.67,23.06,17.34c7.25,5.93,13.18,13.18,18.45,20.43v-3.3a18.76,18.76,0,0,1,.34-4.09,18,18,0,0,0,.32-3.81v-25.3a18.85,18.85,0,0,1,18.86-18.86h28.18A18.86,18.86,0,0,1,1785,2064.2Zm-68.54,117.55a127.46,127.46,0,0,0-25.7-39.54,115.86,115.86,0,0,0-38.22-27,114.37,114.37,0,0,0-45.47-9.22c-16.47,0-31,2.63-44.81,8.57a115.93,115.93,0,0,0-38.22,27,145.13,145.13,0,0,0-25.7,39.54c-5.93,14.5-8.57,30.31-8.57,46.79s2.64,32.29,8.57,46.78a127.8,127.8,0,0,0,25.7,39.55,115.93,115.93,0,0,0,38.22,27,111.21,111.21,0,0,0,44.81,9.23c16.48,0,31-2.64,44.82-8.57a116.07,116.07,0,0,0,38.22-27c11.2-11.86,20.42-25,26.35-39.53s8.57-30.32,8.57-46.79S1722.43,2196.25,1716.49,2181.75Z" transform="translate(-511.02 -421.19)"/><path d="M2022.93,2412.39c-10.54-3.29-20.43-7.25-29-13.18s-16.48-11.86-23.73-17.79c-7.25-6.59-13.18-13.84-19.11-21.09-.66.66-.66,2-.66,3.3v172.49a18.61,18.61,0,0,1-18.61,18.61h-27.35a18.62,18.62,0,0,1-18.62-18.61V2064a18.62,18.62,0,0,1,18.62-18.62h16.4a18.57,18.57,0,0,1,17.73,13c.94,3,2,6.18,3.27,9.45.38,1,.77,2,1.16,3.1,4.44,12.17,19.63,16,29.57,7.65l.24-.2a153.84,153.84,0,0,1,26.36-17.79,136.15,136.15,0,0,1,30.31-13.18,103.51,103.51,0,0,1,32.29-5.27h6.59a172.81,172.81,0,0,1,35.59,4,206.62,206.62,0,0,1,37.56,11.86,175,175,0,0,1,39.54,23.72,190.19,190.19,0,0,1,32.94,35.59,203.46,203.46,0,0,1,14.12,23c.25.48.5,1,.72,1.45a273.24,273.24,0,0,1,10.21,27,158.67,158.67,0,0,1,6.59,31.63,198.4,198.4,0,0,1,2.63,34.93,218.71,218.71,0,0,1-7.24,56.67,146.67,146.67,0,0,1-22.41,46.79,192.38,192.38,0,0,1-33,36.24,219.9,219.9,0,0,1-38,25.24,19.27,19.27,0,0,1-1.78.84l-21.49,8.85c-7.91,3.29-15.82,4.61-23.07,6.59-7.91,2-15.82,2.63-23.06,3.29-7.91.66-15.16,0-22.41-.66A126.94,126.94,0,0,1,2022.93,2412.39Zm-4.61-299.17a107,107,0,0,0-38.22,27c-11.21,12.53-20.43,25.7-26.36,40.2s-8.57,30.31-8.57,47.45c0,17.79,2.64,33.61,8.57,48.1s15.15,27.68,26.36,40.2a107,107,0,0,0,38.22,27,123.19,123.19,0,0,0,93.57,0,107,107,0,0,0,38.22-27c11.21-12.52,20.43-25.7,26.37-40.2s8.56-30.31,8.56-48.1c0-17.14-2.63-33-8.56-47.45s-15.16-27.67-27-40.2a107.07,107.07,0,0,0-38.23-27,119.84,119.84,0,0,0-46.12-9.23A123.22,123.22,0,0,0,2018.32,2113.22Z" transform="translate(-511.02 -421.19)"/><path d="M2489,2393.5a10.69,10.69,0,0,1-7.87,11.1c-6.35,1.78-13.13,3.14-19.92,4.5-9.88,2-21.08,2.63-32.29,2.63h-3.95a106.17,106.17,0,0,1-32.29-4.61c-10.55-3.3-21.75-7.91-31-15.16a40.14,40.14,0,0,1-10.55-7.9c-3.29-3.3-6.59-6.59-8.56-9.89l-6.6-10.54c-1.92-3.22-3.23-7.06-5.13-11.54-.09-.21-.17-.43-.25-.65-2.52-7-4.43-14.56-6.33-21.56a9.39,9.39,0,0,1-.24-1.05c-1.26-7.11-1.9-14.83-2.54-23.19-.66-7.91-.66-15.16-.66-22.41V2116.65a10.69,10.69,0,0,0-10.69-10.68h-32.66a10.7,10.7,0,0,1-10.69-10.69V2058a10.69,10.69,0,0,1,10.69-10.69h32.66a10.7,10.7,0,0,0,10.69-10.69V1922.17a21.81,21.81,0,0,1,21.81-21.81h20.3a21.81,21.81,0,0,1,21.81,21.81v114.46a10.7,10.7,0,0,0,10.69,10.69h72.85A10.68,10.68,0,0,1,2479,2058v37.27a10.69,10.69,0,0,1-10.69,10.69h-72.85a10.69,10.69,0,0,0-10.69,10.68v154.72c0,8.57,0,15.82.66,22.41.66,7.24,2,13.17,2.63,17.79s2.64,9.22,4.62,13.84,3.95,8.57,7.25,11.86a35.23,35.23,0,0,0,12.52,8.57,59.88,59.88,0,0,0,17.13,3.95c6.59.66,14.5,0,23.72-.66,6.3-.45,13.21-.9,20.74-1.77a10.68,10.68,0,0,1,11.83,9.72C2487.07,2371.58,2488.22,2383.83,2489,2393.5Z" transform="translate(-511.02 -421.19)"/></g><g id="Calque_2" data-name="Calque 2"><path d="M1557.63,907.8,1415.25,440.6a15,15,0,0,1,21.15-17.75c52,26.31,153.19,92.75,187.44,223.81,31,118.53-11.77,217.21-38.84,264.22A15,15,0,0,1,1557.63,907.8Z" transform="translate(-511.02 -421.19)"/><path d="M1666,1348.76q-43.4-156-86.8-312.08a15,15,0,0,1,12.92-19c100.62-10,190.5,59.73,204.14,150,11.51,76.18-32.94,155.87-109.61,190.72A15,15,0,0,1,1666,1348.76Z" transform="translate(-511.02 -421.19)"/><path d="M1465.93,898.08q58.38,235.38,116.75,470.77a15,15,0,0,1-13.26,18.57c-131.51,12-253.25-76.35-280.79-203.59-26.36-121.73,40.34-247.49,156.95-296A15,15,0,0,1,1465.93,898.08Z" transform="translate(-511.02 -421.19)"/><path d="M1588.76,1427.6l-287.4,117.77a15,15,0,0,0-8.2,19.6c35.79,87.77,125.11,133.4,202.35,110.58,87.29-25.79,143.61-134.38,113.4-238.18A15.06,15.06,0,0,0,1588.76,1427.6Z" transform="translate(-511.02 -421.19)"/><path d="M1528.43,672.51" transform="translate(-511.02 -421.19)"/></g></svg>