<svg xmlns="http://www.w3.org/2000/svg" width="29" height="33.952" viewBox="0 0 29 33.952"><defs><style>.a{fill:#1d1d1d;}</style></defs><g transform="translate(0 0)"><g transform="translate(14.155 0)"><path class="a" d="M254.108,0A7.576,7.576,0,0,0,249.2,2.655,6.58,6.58,0,0,0,247.6,7.769a6.394,6.394,0,0,0,4.95-2.528A7.1,7.1,0,0,0,254.108,0Z" transform="translate(-247.522)"/></g><g transform="translate(0 7.557)"><path class="a" d="M65.353,123.336a8.557,8.557,0,0,0-6.487-3.5c-3.045,0-4.333,1.48-6.449,1.48-2.181,0-3.839-1.475-6.472-1.475a8.786,8.786,0,0,0-7.087,4.348c-2.455,3.864-2.035,11.129,1.944,17.316,1.424,2.214,3.325,4.7,5.812,4.725,2.213.022,2.837-1.441,5.835-1.456s3.567,1.475,5.776,1.452c2.489-.019,4.494-2.778,5.918-4.992a24.957,24.957,0,0,0,2.192-4.178A7.645,7.645,0,0,1,65.353,123.336Z" transform="translate(-37.336 -119.84)"/></g></g></svg>