<svg xmlns="http://www.w3.org/2000/svg" width="292" height="324" viewBox="0 0 292 324"><defs><style>.a,.d{font-size:18px;}.a,.b,.c,.d,.e{font-family:Montserrat-Regular, Montserrat;}.b,.e{font-size:16px;}.c{font-size:15px;}.d,.e{fill:#aaa;}</style></defs><g transform="translate(-6 -11)"><text class="a" transform="translate(149 28)"><tspan x="-71.991" y="0">Novembre 2020</tspan></text><path d="M2.2,0-5,7.2l7.2,7.2" transform="translate(22.999 15.119)"/><path d="M0,0,7.2,7.2,0,14.4" transform="translate(277.183 15.119)"/><text class="b" transform="translate(22 70)"><tspan x="-15.448" y="0">Lun</tspan></text><text class="c" transform="translate(65 70)"><tspan x="-14.595" y="0">Mar</tspan></text><text class="c" transform="translate(108 70)"><tspan x="-14.7" y="0">Mer</tspan></text><text class="b" transform="translate(151 70)"><tspan x="-14.224" y="0">Jeu</tspan></text><text class="c" transform="translate(194 70)"><tspan x="-14.43" y="0">Ven</tspan></text><text class="b" transform="translate(238 70)"><tspan x="-18.128" y="0">Sam</tspan></text><text class="b" transform="translate(280 70)"><tspan x="-17.248" y="0">Dim</tspan></text><text class="d" transform="translate(22 114)"><tspan x="-10.557" y="0">26</tspan></text><text class="d" transform="translate(65 114)"><tspan x="-10.377" y="0">27</tspan></text><text class="d" transform="translate(108 114)"><tspan x="-10.854" y="0">28</tspan></text><text class="d" transform="translate(151 114)"><tspan x="-10.593" y="0">29</tspan></text><text class="d" transform="translate(194 114)"><tspan x="-11.034" y="0">30</tspan></text><text class="d" transform="translate(238 114)"><tspan x="-8.325" y="0">31</tspan></text><text class="b" transform="translate(280 112)"><tspan x="-2.888" y="0">1</tspan></text><text class="b" transform="translate(21 155)"><tspan x="-4.544" y="0">2</tspan></text><text class="b" transform="translate(64 155)"><tspan x="-4.512" y="0">3</tspan></text><text class="b" transform="translate(108 155)"><tspan x="-5.288" y="0">4</tspan></text><text class="b" transform="translate(151 155)"><tspan x="-4.528" y="0">5</tspan></text><text class="b" transform="translate(194 155)"><tspan x="-4.872" y="0">6</tspan></text><text class="b" transform="translate(237 155)"><tspan x="-4.712" y="0">7</tspan></text><text class="b" transform="translate(280 155)"><tspan x="-5.104" y="0">8</tspan></text><text class="b" transform="translate(21 198)"><tspan x="-4.872" y="0">9</tspan></text><text class="a" transform="translate(65 200)"><tspan x="-9.207" y="0">10</tspan></text><text class="b" transform="translate(107 198)"><tspan x="-5.776" y="0">11</tspan></text><text class="a" transform="translate(151 200)"><tspan x="-8.361" y="0">12</tspan></text><text class="a" transform="translate(194 200)"><tspan x="-8.325" y="0">13</tspan></text><text class="a" transform="translate(238 200)"><tspan x="-9.198" y="0">14</tspan></text><text class="a" transform="translate(281 200)"><tspan x="-8.343" y="0">15</tspan></text><text class="a" transform="translate(22 244)"><tspan x="-8.73" y="0">16</tspan></text><text class="a" transform="translate(65 244)"><tspan x="-8.55" y="0">17</tspan></text><text class="a" transform="translate(108 244)"><tspan x="-8.991" y="0">18</tspan></text><text class="a" transform="translate(151 244)"><tspan x="-8.73" y="0">19</tspan></text><text class="a" transform="translate(194 244)"><tspan x="-11.034" y="0">20</tspan></text><text class="a" transform="translate(238 244)"><tspan x="-8.361" y="0">21</tspan></text><text class="a" transform="translate(281 244)"><tspan x="-10.224" y="0">22</tspan></text><text class="a" transform="translate(22 287)"><tspan x="-10.188" y="0">23</tspan></text><text class="a" transform="translate(65 287)"><tspan x="-10.854" y="0">24</tspan></text><text class="a" transform="translate(108 287)"><tspan x="-10.206" y="0">25</tspan></text><text class="a" transform="translate(151 287)"><tspan x="-10.557" y="0">26</tspan></text><text class="a" transform="translate(194 287)"><tspan x="-10.377" y="0">27</tspan></text><text class="a" transform="translate(238 287)"><tspan x="-10.854" y="0">28</tspan></text><text class="a" transform="translate(281 287)"><tspan x="-10.593" y="0">29</tspan></text><text class="a" transform="translate(22 330)"><tspan x="-11.034" y="0">30</tspan></text><text class="e" transform="translate(64 328)"><tspan x="-2.888" y="0">1</tspan></text><text class="e" transform="translate(108 328)"><tspan x="-4.544" y="0">2</tspan></text><text class="e" transform="translate(151 328)"><tspan x="-4.512" y="0">3</tspan></text><text class="e" transform="translate(194 328)"><tspan x="-5.288" y="0">4</tspan></text><text class="e" transform="translate(237 328)"><tspan x="-4.528" y="0">5</tspan></text><text class="e" transform="translate(280 328)"><tspan x="-4.872" y="0">6</tspan></text></g></svg>