<svg xmlns="http://www.w3.org/2000/svg" xmlns:xlink="http://www.w3.org/1999/xlink" width="31.876" height="32.416" viewBox="0 0 31.876 32.416"><defs><style>.a,.c{fill:#1d1d1d;}.a{stroke:#707070;}.b{clip-path:url(#a);}</style><clipPath id="a"><ellipse class="a" cx="15.938" cy="16.208" rx="15.938" ry="16.208" transform="translate(0 0)"/></clipPath></defs><g class="b"><g transform="translate(0 0.27)"><path class="c" d="M7.064,26.84l-1.11,4.142L1.9,31.068a15.966,15.966,0,0,1-.117-14.883h0l3.61.662,1.582,3.589a9.512,9.512,0,0,0,.089,6.4Z" transform="translate(0 -7.577)"/><path class="c" d="M45.935,24.369a15.932,15.932,0,0,1-5.682,15.407h0l-4.548-.232-.644-4.018a9.5,9.5,0,0,0,4.087-4.851H30.626V24.369H45.935Z" transform="translate(-14.337 -11.408)"/><path class="c" d="M27.587,45.322h0A15.943,15.943,0,0,1,3.571,40.447l5.165-4.228A9.479,9.479,0,0,0,22.4,41.072Z" transform="translate(-1.672 -16.956)"/><path class="c" d="M27.68,3.669,22.517,7.9A9.478,9.478,0,0,0,8.544,12.859L3.352,8.608h0A15.941,15.941,0,0,1,27.68,3.669Z" transform="translate(-1.569)"/></g></g></svg>